<svg id="Layer_1" data-name="Layer 1" xmlns="http://www.w3.org/2000/svg" viewBox="0 0 150 100"><defs><style>.cls-1{fill:#25161b;}.cls-2{fill:#c64f20;}.cls-3{fill:#cf621f;}.cls-4{fill:#d78020;}.cls-5{fill:#d67d20;}.cls-6{fill:#e09e1e;}.cls-7{fill:#f1cb42;}.cls-8{fill:#fff;}.cls-9{fill:#212020;}</style></defs><path class="cls-1" d="M139.43,42.47l-9.2-6.31a16.93,16.93,0,0,1-1.44-7.22,18.65,18.65,0,0,1,4-10.56c2.16-3.1,7.62-9.53,11.11-8.28.74.26,1.83,1,2.49,3.61l-.29,11s.14,2.21-3.58,2.62,3.85,1.7,3.85,1.7a6.41,6.41,0,0,1,1.55,2.82c.24,1.44.52,4.48.52,4.48l-1,1.4-.6,2.09S142.19,44.36,139.43,42.47Z"/><path class="cls-2" d="M129.64,30.24c0,.18,1.16-10.74,5.9-13.08S129.64,30.24,129.64,30.24Z"/><path class="cls-2" d="M137.21,20.37l.48-2.34a9.66,9.66,0,0,1,3.17-.16c1,.13.88,0,1.19.28s.25.5,0,.76a4.78,4.78,0,0,1-1.49.49Z"/><path class="cls-3" d="M134.74,24.29l1.41-2.41s6.1-3.29,7.14-1.8a1.42,1.42,0,0,1-.49,2.23Z"/><path class="cls-3" d="M130.31,29.94s3.49-3,4.11-4.45l8.48-2.67s4.08,1.28.14,2.67S130.31,29.94,130.31,29.94Z"/><path class="cls-4" d="M129.62,31.48s0,.52.32.49l4.09-.64s1.78-.49,1.39-1.54a7.12,7.12,0,0,0-1.87.36C132.6,30.49,129.62,31.48,129.62,31.48Z"/><path class="cls-4" d="M135.37,31.17l1.77-1.81s3.19-2.45,4.37-.7c0,0,.54.66-1.16,1.47A18,18,0,0,1,135.37,31.17Z"/><path class="cls-5" d="M136.26,31.73s7.9,2.9,8.22,1.34a2.07,2.07,0,0,0-1-2.25Z"/><path class="cls-6" d="M129.77,32.82s8,4.79,9.19,2.46c0,0-1.53-2.63-3.43-3.06S129.77,32.82,129.77,32.82Z"/><path class="cls-6" d="M138.47,33.7s2,2,3.37,2.28,2.54.34,2.66,1.17c0,0,3-.3.93-2s-2.38-1.14-4.67-1.28Z"/><path class="cls-6" d="M139.1,35.87s5.54.56,5.2,2.48-2.21.83-2.21.83l-1.26-1.31Z"/><path class="cls-7" d="M130,33.84s3.44,3.86,5.53,3.94C135.49,37.78,132.82,34,130,33.84Z"/><path class="cls-7" d="M134.93,36s5.22,7.61,7.63,5.25c0,0-1.1-2.67-2.8-3.26s-2.08-.1-3.16-.9A11.23,11.23,0,0,0,134.93,36Z"/><path class="cls-8" d="M140.23,13.1s-3.34.51-3.27,2.52,3.36-1,3.31-1.78Z"/><path class="cls-8" d="M141.89,13.79l.17.11c-.11-.08,0,0,.07.06l.31.26a2.29,2.29,0,0,0,.83.47,1.44,1.44,0,0,0,1.6-.56c.39-.7-.09-1.45-.39-2.08s-.56-1.19-1.22-1.38a2.12,2.12,0,0,0-1.88.58,1.59,1.59,0,0,0-.37,1.89,3.54,3.54,0,0,0,1.26,1.26,2.87,2.87,0,0,0,1.8.62,1.3,1.3,0,0,0,1.07-.57,1.24,1.24,0,0,0-.13-1.27,1.07,1.07,0,0,0-1.06-.6.87.87,0,0,0-.74,1.08.62.62,0,0,0,.68.45.61.61,0,0,0,.54-.61c0-.33-.08-.65-.12-1a.62.62,0,0,0-.52-.45.61.61,0,0,0-.62.3l-.22.38h0a.27.27,0,0,1-.07.08,1.07,1.07,0,0,1-.14.16l1,.61a4.59,4.59,0,0,0,.1-1.17.62.62,0,0,0-1.16-.31l-.33.7,1.14.48.27-1.41a.63.63,0,0,0-.29-.7.61.61,0,0,0-.75.1l-.75.86,1.05.61.2-.5a.59.59,0,0,0-.22-.65.62.62,0,0,0-.69,0,1.86,1.86,0,0,0-.7.51l1.07.44v.06c0-.05,0-.06,0,0s.09-.08,0,0a.65.65,0,0,0,0-.88.64.64,0,0,0-.89,0,1.34,1.34,0,0,0-.34.81.63.63,0,0,0,1.07.44l.1-.11.08-.07q-.09.06,0,0a1.64,1.64,0,0,1,.29-.16l-.92-.71-.21.5a.63.63,0,0,0,1.05.6l.74-.86-1-.61L142.33,13a.64.64,0,0,0,.36.74.63.63,0,0,0,.78-.26l.33-.7-1.17-.32a3.84,3.84,0,0,1,0,.48s0,.26,0,.12c0,.08,0,.16,0,.24a.63.63,0,0,0,.28.7.63.63,0,0,0,.76-.1,3.23,3.23,0,0,0,.63-.87l-1.15-.15s0,.21,0,.09l0,.18c0,.13,0,.25,0,.38l1.23-.17a.37.37,0,0,1-.34.49s-.22-.1-.12,0c-.17-.12,0,.05,0,0s0,.05,0,.06,0,.08.07.12l0,.05c0-.07,0-.07,0,0s0,.07,0,0a.19.19,0,0,1,0-.1s.12-.15,0-.07l.06,0c-.06,0,0,0,0,0s-.11,0-.12,0c-.16.05.11,0-.05,0h-.14a1,1,0,0,1-.33-.09s-.14-.06,0,0l-.14-.07-.29-.17-.23-.15-.13-.1-.09-.07c.07.05.07.06,0,0a4.59,4.59,0,0,1-.39-.37c-.08-.08,0,0,0,0l-.08-.12s-.07-.09-.07-.12,0,.09,0,0,0-.06,0-.08,0,0,0,0a.33.33,0,0,1,0-.14v.07a.29.29,0,0,1,0-.09c0-.13-.07.09,0,0l.06-.1c.05-.07-.1.1,0,0l.1-.1.08-.06c-.07,0-.07,0,0,0l.22-.12c.14-.09-.11,0,0,0l.14,0h.16c.07,0,.06,0,0,0l.08,0c.13.06,0-.05,0,0s.07.05.08.08l0-.05a.56.56,0,0,1,0,.08.75.75,0,0,1,.07.12,6.63,6.63,0,0,1,.29.6l.28.6c.08.16,0-.11,0,.06a.49.49,0,0,0,0,.11v.05c0-.08,0-.08,0,0,0-.08,0-.08,0,0,0-.09,0-.11,0-.05s.1-.1,0,0,.12-.06,0,0,0,0,0,0a.4.4,0,0,0-.15,0c.1-.05.12,0,0,0h0l-.08,0-.07,0c-.06,0-.05,0,0,0l-.08-.05-.17-.1c-.14-.09.09.08,0,0l-.15-.13a5.41,5.41,0,0,0-.61-.46.62.62,0,0,0-.85.22.64.64,0,0,0,.22.86Z"/><path class="cls-8" d="M140.08,16.62a1.61,1.61,0,0,1-.56.15.61.61,0,0,1-.4-.06.32.32,0,0,1-.17-.34c0-.17.23-.25.39-.34.65-.37.81-1.35,1.51-1.63A.95.95,0,0,1,142,15.82a1.5,1.5,0,0,1-.41.38,5.65,5.65,0,0,1-1.5.56c-.32.08-.7.14-.92-.1"/><path class="cls-8" d="M142.92,15.49a1.42,1.42,0,0,0-.47.29,1.29,1.29,0,0,0-.28.37.39.39,0,0,0,0,.38.39.39,0,0,0,.33.19,1.23,1.23,0,0,0,.56-.18,1.34,1.34,0,0,0,.41-.41,1,1,0,0,0,.17-.57.57.57,0,0,0-.17-.42.51.51,0,0,0-.86.19,1.23,1.23,0,0,0,0,.33v-.1s0,0,0,.06l0-.09s0,0,0,.06l.06-.08-.06.06.08-.06a.83.83,0,0,1-.16.09l-.2.15a.57.57,0,0,0-.13.71.47.47,0,0,0,.27.21.5.5,0,0,0,.27,0,.86.86,0,0,0,.28-.11,1,1,0,0,0,.4-.53l-.74-.1v-.07s0,0,0,.05l0-.09,0,.06.06-.07,0,0a.36.36,0,0,0-.11.26.4.4,0,0,0,.11.27.41.41,0,0,0,.26.11l.1,0a.35.35,0,0,0,.17-.09.45.45,0,0,0,.13-.17.68.68,0,0,0,.07-.28.37.37,0,0,0-.32-.37.39.39,0,0,0-.42.27.14.14,0,0,1,0,.06l0-.09a.35.35,0,0,1-.07.12l.06-.07a.43.43,0,0,1-.1.09l.08,0-.12.07.09,0-.11,0h.13l.09,0h0l.07.06,0,0,.06.07h0l0,.09,0-.05,0,.1v0l0,.1s0,0,0-.06l0,.09,0-.05-.06.08.07-.07-.07.06a2.9,2.9,0,0,0,.36-.25.54.54,0,0,0,.17-.29.62.62,0,0,0,0-.19v0a.07.07,0,0,1,0-.05l0,.09,0,0-.06.08,0,0-.08.06,0,0-.09,0h0l-.1,0h0l-.1,0h.05l-.09,0,0,0-.08-.06,0,0-.06-.07,0,.05,0-.09s0,0,0,0v-.09a1.05,1.05,0,0,1-.05.19l0-.09a1.18,1.18,0,0,1-.11.19l.05-.08a.61.61,0,0,1-.16.16l.08-.06a.62.62,0,0,1-.19.11l.09,0a1.66,1.66,0,0,1-.21.06l.1,0h0l.32.56a1,1,0,0,1,.11-.17l-.06.07a1.37,1.37,0,0,1,.17-.17l-.07.06a1.2,1.2,0,0,1,.21-.13l-.09,0h0a.41.41,0,0,0,.22-.17.37.37,0,0,0,0-.29.39.39,0,0,0-.17-.23.42.42,0,0,0-.29,0Z"/><path class="cls-8" d="M144.6,16.75l.22,0a.37.37,0,0,0,.18-.05.35.35,0,0,0,.14-.13.5.5,0,0,0,.05-.13h0a.5.5,0,0,0,0-.12.59.59,0,0,0,0-.13,0,0,0,0,0,0,0,.43.43,0,0,0-.05-.12.76.76,0,0,0-.08-.11l-.06,0-.07-.05a.54.54,0,0,0-.25-.06.51.51,0,0,0-.25.06h0l-.09.07,0,0a.39.39,0,0,0-.08.1.61.61,0,0,0-.05.12s0,0,0,0,0,.07,0,.11v0c0,.05,0,.09,0,.14a.67.67,0,0,0,.06.12.32.32,0,0,0,.22.17.26.26,0,0,0,.15,0,.24.24,0,0,0,.14-.05l.08-.05a.4.4,0,0,0,.09-.17l0-.1a.41.41,0,0,0,0-.19l0,0,0,.09s0,0,0,0l0,.1a0,0,0,0,1,0,0l0,.1a.08.08,0,0,1,0-.05l0,.09s0,0,0-.05l-.06.08,0,0-.08.06,0,0-.09,0h-.09l-.09,0a.05.05,0,0,1,0,0l-.08-.06a.08.08,0,0,1,0,0l-.06-.08,0,0,0-.09s0,0,0,.05v-.16s0,0,0,0l0-.09h0l.33-.19-.22,0a.32.32,0,0,0-.14,0,.25.25,0,0,0-.12.08.23.23,0,0,0-.08.12.2.2,0,0,0,0,.15v.1a.39.39,0,0,0,.1.16l.07.06a.41.41,0,0,0,.19.05Z"/><path class="cls-8" d="M136,16.47l.16-.2a.42.42,0,0,0,.08-.12.4.4,0,0,0,0-.15.32.32,0,0,0,0-.14.25.25,0,0,0-.08-.12l-.08-.06a.3.3,0,0,0-.19,0h-.1a.39.39,0,0,0-.16.1l-.16.2a.28.28,0,0,0-.08.12.25.25,0,0,0,0,.15.22.22,0,0,0,0,.14.2.2,0,0,0,.08.12l.07.06a.41.41,0,0,0,.19,0h.1a.42.42,0,0,0,.17-.1Z"/><path class="cls-8" d="M143.9,22.26h0a.2.2,0,0,0,.06.07v0a.4.4,0,0,0,.18.1l.12,0h0l.11,0h0l.05,0,.05,0h0l.05,0a.1.1,0,0,0,0,0,.46.46,0,0,0,.13-.21.13.13,0,0,1,0-.06V22a.45.45,0,0,0,0-.11h0a.14.14,0,0,1,0,0,.11.11,0,0,1,0-.05.35.35,0,0,0-.07-.09.28.28,0,0,0-.12-.08.4.4,0,0,0-.15,0,.32.32,0,0,0-.14,0,.2.2,0,0,0-.12.08l-.06.07A.41.41,0,0,0,144,22v.1a.37.37,0,0,0,.1.17h0l-.06-.08v0l0-.09h0l0-.1v0l0-.1v0l0-.09a0,0,0,0,1,0,0l.05-.07s0,0,0,0l.08-.06a.05.05,0,0,1,0,0l.09,0h.13l.09,0h0l.08.05h0l.05.08h0a.36.36,0,0,0-.1-.11.31.31,0,0,0-.13-.06.26.26,0,0,0-.15,0,.37.37,0,0,0-.14,0l-.07.06a.37.37,0,0,0-.1.17v.1a.41.41,0,0,0,.05.19Z"/><path class="cls-8" d="M145.15,23.51a.38.38,0,0,0,0-.75.38.38,0,0,0,0,.75Z"/><path class="cls-8" d="M143.86,18.23a.18.18,0,0,1-.07-.05l.13.1a.52.52,0,0,1-.11-.1l.1.12a.36.36,0,0,1-.07-.1l.07.15a.08.08,0,0,1,0,0l0,.16v0l0,.17v0l-.06.15v0l-.1.13h0l-.12.09h0l-.15.06h0l-.16,0h0l-.16,0h0l-.15-.06h0l-.13-.09h0l-.1-.12a.56.56,0,0,1,0,.08l0,.09.1.18a.46.46,0,0,0,.16.18.53.53,0,0,0,.21.11.43.43,0,0,0,.25,0,.48.48,0,0,0,.23-.07l.13-.1a.61.61,0,0,0,.16-.28l0-.16a.69.69,0,0,0-.08-.32l-.11-.21-.06-.11v0h0l-.1-.13a.61.61,0,0,0-.16-.12l-.15-.07h0l-.18,0a.63.63,0,0,0-.33.09.45.45,0,0,0-.14.1.72.72,0,0,0-.21.51s0,.07,0,.09a.31.31,0,0,0,0,.09v0l.06.16h0v0l.15.2.08.08.17.13,0,0a.45.45,0,0,0,.23.07.43.43,0,0,0,.25,0,.53.53,0,0,0,.21-.11.4.4,0,0,0,.16-.18l.06-.15a.62.62,0,0,0,0-.33l-.06-.15a.66.66,0,0,0-.22-.22Z"/><path class="cls-8" d="M144.37,19.72a.6.6,0,0,0-.2.22.59.59,0,0,0-.07.29.62.62,0,0,0,.09.29.61.61,0,0,0,.16.16.38.38,0,0,0,.13.06h.15a.38.38,0,0,0,.15,0,.62.62,0,0,0,.25-.14l.09-.11a0,0,0,0,1,0,0,.61.61,0,0,0,.05-.12.42.42,0,0,0,0-.16.59.59,0,0,0-.07-.25,1,1,0,0,0-.09-.13l-.06-.05-.09-.08-.08,0a.59.59,0,0,0-.2,0l-.12,0-.11.05-.1.07,0,0a.94.94,0,0,0-.09.12s0,.08,0,.12a.57.57,0,0,0,0,.13.43.43,0,0,0,0,.16.14.14,0,0,0,0,.07,1,1,0,0,0,.07.15l.07.09.1.08a.57.57,0,0,0,.31.1h0l.13,0,.15-.06a.78.78,0,0,0,.24-.24.35.35,0,0,0,.05-.08.72.72,0,0,0,.07-.25.58.58,0,0,0-.06-.26l-.07-.09-.06-.06-.07,0-.11-.05h-.13a.56.56,0,0,0-.21.06.24.24,0,0,0-.1.1.21.21,0,0,0-.07.12.26.26,0,0,0,0,.15.24.24,0,0,0,0,.14.43.43,0,0,0,.22.18h.1a.41.41,0,0,0,.19,0h0l-.09,0h-.14l-.09,0h0l-.08-.06,0,0-.06-.08s0,0,0,0l0-.09v-.13s0,0,0,.05l0-.09a.41.41,0,0,1,0,.09l.06-.08a.3.3,0,0,1-.08.08l.08-.06-.06,0,.09,0h.1l-.06,0,.09,0-.05,0,.07.06,0,0,.06.08a.09.09,0,0,1,0,0l0,.09s0-.05,0-.08l0,.1a.08.08,0,0,1,0-.07l0,.1s0,0,0,0l0,.09,0-.05-.06.08,0,0-.08.06,0,0-.09,0h-.11l-.09,0,0,0-.07-.06.07.07-.06-.07,0,.06,0-.09a.11.11,0,0,1,0,.05v-.05l0-.1a.06.06,0,0,0,0,0l0-.09,0,0,.06-.07,0,0,.07-.06,0,0,.09,0-.05,0,.1,0h-.06l.1,0h0l.09,0a.05.05,0,0,1,0,0l.08.06,0,0,.06.07a.05.05,0,0,1,0,0l0,.09s0,0,0-.05v.15a.14.14,0,0,1,0-.06l0,.09,0,0-.05.07s0,0,0,0l-.08.06h0a.22.22,0,0,0,.1-.09.24.24,0,0,0,.07-.13.26.26,0,0,0,0-.15.24.24,0,0,0-.05-.14.34.34,0,0,0-.22-.17.41.41,0,0,0-.29,0Z"/><path class="cls-8" d="M144.54,18.46l.07.07-.06-.07,0,.05,0-.09s0,0,0,0v-.16s0,0,0,0l0-.09,0,0,.06-.08,0,0a.4.4,0,0,0-.11.2.22.22,0,0,0,0,.11h0v.1h0l0,0,0,.05.07.09c-.06-.06.06.05.08.06h0l.09,0,.12,0h.18l.1-.05h0l.09-.07h0a.1.1,0,0,1,0-.05l0-.06a.14.14,0,0,0,0-.06l0-.06s0-.07,0-.11v0a.54.54,0,0,0-.09-.27.44.44,0,0,0-.08-.11l0,0-.12-.09-.13-.06H145l-.15,0a.4.4,0,0,0-.15,0,.42.42,0,0,0-.12.08.36.36,0,0,0-.08.12.32.32,0,0,0,0,.14l0,.1a.35.35,0,0,0,.09.17l.08.06a.41.41,0,0,0,.19.05h-.07l.07,0-.08,0,.06,0-.07-.06,0,.05-.06-.07,0,.05,0-.09s0,0,0,0v-.16s0,0,0,0l0-.09,0,0,.06-.07,0,0,.08-.06-.05,0,.09,0h.1l.09,0h0l.07.06h0l0,.08h0l0,.09h0v.16l0,.09,0,0-.06.07,0,0a.62.62,0,0,0,.12-.19.57.57,0,0,0,0-.29.61.61,0,0,0-.11-.21.52.52,0,0,0-.1-.11.39.39,0,0,0-.27-.11.32.32,0,0,0-.14,0,.25.25,0,0,0-.12.08.33.33,0,0,0-.11.26.35.35,0,0,0,.11.27Z"/><path class="cls-8" d="M142.66,29.05a1.53,1.53,0,0,0-.38.12,1.9,1.9,0,0,0-.33.22.37.37,0,0,0-.1.17.26.26,0,0,0,0,.15.29.29,0,0,0,0,.13A.35.35,0,0,0,142,30a.94.94,0,0,0,.66.07l.2-.1a.61.61,0,0,0,.31-.5s0-.05,0-.07a.15.15,0,0,0,0-.07.49.49,0,0,0-.11-.2L143,29l-.12-.05a.32.32,0,0,0-.14,0h-.14a.45.45,0,0,0-.3.31.38.38,0,0,0,0,.29.38.38,0,0,0,.22.17.36.36,0,0,0,.29,0,.37.37,0,0,0,.17-.22h0l0,.08h0l-.06.08h0l-.08.05h0l-.09,0h0l-.1,0h0l-.1,0,0,0-.09,0h0l-.07-.06,0,0-.06-.07v0l0-.09a0,0,0,0,1,0,0v-.17s0,0,0,.05l0-.09,0,.05.05-.07-.05.05.08-.06-.1.06.09,0-.12,0h.07l-.13,0,.09,0h0l.08.59,0,0-.08.06a1.17,1.17,0,0,1,.27-.15l-.09,0a.79.79,0,0,1,.26-.08.19.19,0,0,0,.12-.07.19.19,0,0,0,.1-.1.37.37,0,0,0,0-.29.44.44,0,0,0-.17-.23l-.09,0a.34.34,0,0,0-.2,0Z"/><path class="cls-8" d="M144.29,30a.38.38,0,0,0,0-.75.38.38,0,0,0,0,.75Z"/><path class="cls-8" d="M144.67,30.37a.47.47,0,0,0-.15.06.55.55,0,0,0-.17.17.37.37,0,0,0,0,.11.41.41,0,0,0,0,.22.42.42,0,0,0,.13.21.39.39,0,0,0,.1.08l.11,0a.57.57,0,0,0,.18,0l.18,0a.61.61,0,0,0,.17-.07l.07-.06a.2.2,0,0,0,.08-.12.16.16,0,0,0,0-.09.38.38,0,0,0,0-.15.31.31,0,0,0-.06-.13.34.34,0,0,0-.09-.12l-.09-.07-.11-.05-.15,0a.32.32,0,0,0-.14,0,.25.25,0,0,0-.12.08.2.2,0,0,0-.08.12.22.22,0,0,0,0,.14v.1a.37.37,0,0,0,.1.17l.07.06a.41.41,0,0,0,.19.05h-.05l-.09,0,0,0-.07-.06,0,0-.06-.08,0,0,0-.09v0l.17-.42h0l.09,0s-.05,0-.08,0l.1,0h-.1l.1,0-.06,0,.09,0,0,0,.08.06a0,0,0,0,1,0,0l.06.08h0l0,.08h0l0,.1v0l0,.1h0l0,.09v0l-.06.08,0,0-.08.06.05,0-.09,0h0A.24.24,0,0,0,145,31a.22.22,0,0,0,.09-.1.27.27,0,0,0,0-.14.26.26,0,0,0,0-.15l0-.09a.35.35,0,0,0-.13-.14l-.09,0a.34.34,0,0,0-.2,0Z"/><path class="cls-8" d="M146,30.19a.55.55,0,0,0-.07.28v0a.5.5,0,0,0,0,.12v0a.37.37,0,0,0,0,.11.44.44,0,0,0,.13.14.41.41,0,0,0,.19.05h0l.11,0h0l.09,0h0l0,0s0,0,0,0h0s.05-.06.07-.09a109894712553.66,109894712553.66,0,0,1,0-.1h0s0-.08,0-.11,0-.08,0-.12h0a.61.61,0,0,0-.05-.12.57.57,0,0,0-.16-.15.22.22,0,0,0-.13,0,.38.38,0,0,0-.15,0,.27.27,0,0,0-.13.07.27.27,0,0,0-.1.11l0,.08a.67.67,0,0,0,0,.2l0,.09a.32.32,0,0,0,.14.14h0l-.07-.06v0l-.06-.08v0l0-.09V30.4l0-.09v0l.06-.08v0l.07-.06h0l.09,0s0,0,0,0h.08l.32.18h0l0,.09a.09.09,0,0,1,0-.05v.15a.09.09,0,0,1,0-.05l0,.09v0a.34.34,0,0,0,.05-.14.38.38,0,0,0,0-.15.29.29,0,0,0-.07-.12.24.24,0,0,0-.1-.1l-.09,0a.34.34,0,0,0-.2,0l-.09,0a.44.44,0,0,0-.14.13Z"/><path class="cls-8" d="M146.57,33.28l.15-.11a.76.76,0,0,0,.11-.14s0-.08,0-.13,0,0,0,0a.4.4,0,0,0,0-.19s0-.09,0-.13v0a.37.37,0,0,0,0-.11v0l-.07-.09-.11-.08a.25.25,0,0,0-.09,0h-.08a.37.37,0,0,0-.18,0l-.06,0-.06,0-.08.06h0a.27.27,0,0,0-.07.08.51.51,0,0,0-.06.22s0,0,0,.07,0,0,0,.07a1.3,1.3,0,0,0,.08.17l0-.09s0,0,0,0v-.18h0l0-.09h0a.38.38,0,0,0,0,.29.33.33,0,0,0,.07.13.32.32,0,0,0,.1.1.42.42,0,0,0,.29,0,.39.39,0,0,0,.23-.17.43.43,0,0,0,0-.35.89.89,0,0,0-.08-.17l0,.09s0,0,0,0v.15l0,.09h0l0,.08v0l-.08.06h0l-.09,0h0l-.1,0h-.05l-.09,0,0,0-.08-.06,0,0-.06-.08,0,.05,0-.09a.07.07,0,0,1,0,.05v-.13a.24.24,0,0,1,0,.08l0-.09,0,.06.05-.08,0,0,.07-.06-.05,0a.32.32,0,0,0-.1.1.24.24,0,0,0-.07.13.26.26,0,0,0,0,.15.39.39,0,0,0,.05.14.37.37,0,0,0,.22.17h.1a.41.41,0,0,0,.19,0Z"/><path class="cls-8" d="M144.56,33.36a.5.5,0,0,0,.05.21h0l.06.08h0a.45.45,0,0,0,.21.12l.13,0,.13,0h0l.11,0h0a.62.62,0,0,0,.18-.18.49.49,0,0,0,0-.11v0a.37.37,0,0,0,0-.11v0a.34.34,0,0,0,0-.1h0v0a.41.41,0,0,0-.11-.19.44.44,0,0,0-.1-.08.51.51,0,0,0-.21-.06H145a.47.47,0,0,0-.19.12.45.45,0,0,0-.11.19.36.36,0,0,0,0,.23.31.31,0,0,0,.06.13.24.24,0,0,0,.11.09.24.24,0,0,0,.14,0,.26.26,0,0,0,.15,0l.09,0a.4.4,0,0,0,.13-.13l0-.09a.34.34,0,0,0,0-.2h0v.1h0v.1h0l0,.08h0l-.06.07h0l-.08.06h0l-.09,0H145l-.09,0h0l-.07-.06h0l-.06-.07,0,0,0-.09v0l0-.1v0l0-.1v0l0-.09,0,0,.06-.07,0,0,.08-.05,0,0,.09,0h.08l.09,0h0l.08,0h0l.06.08v0l0,.09h0v.09h0a.37.37,0,0,0,0-.15l-.08-.12a.42.42,0,0,0-.12-.08l-.15,0h-.1a.34.34,0,0,0-.16.1l-.06.08a.41.41,0,0,0-.05.19Z"/><path class="cls-8" d="M146.26,34.45l-.06.14a.19.19,0,0,0,0,.07.93.93,0,0,0,0,.23s0,.11,0,.16l.06.15a.8.8,0,0,0,.13.19.27.27,0,0,0,.08.07.5.5,0,0,0,.19.1l.13,0h.12a.55.55,0,0,0,.21-.12.47.47,0,0,0,.15-.35.53.53,0,0,0-.07-.3.51.51,0,0,0-.15-.21l-.13-.1-.07,0,.07.06h0l.06.07h0l0,.08h0v.1h0v.1h0l0,.09h0l-.06.07h0l-.08.06h0l-.09,0h-.14l-.09,0h0a.32.32,0,0,0,.19,0,.22.22,0,0,0,.14,0A.2.2,0,0,0,147,35a.34.34,0,0,0,.1-.16.54.54,0,0,0,0-.22.36.36,0,0,0,0-.11.43.43,0,0,0-.17-.16.46.46,0,0,0-.23-.06.43.43,0,0,0-.17,0l-.05,0-.08.06a.39.39,0,0,0,0,.54.35.35,0,0,0,.26.1.38.38,0,0,0,.27-.1h0l-.07.06h0l-.09,0h0l-.1,0h0l-.1,0h0l-.09,0h0l-.07-.06v0l-.06-.08h0l0-.08h0l0-.1h0l0-.1h0l.55-.23-.1,0h0l-.13,0a.4.4,0,0,0-.19.75l.09,0-.08-.06.07.08,0-.08,0,.09,0-.09s0,0,0,.06l0-.1v.05l0-.1a.08.08,0,0,0,0,0l0-.09v0l.06-.08s0,0,0,0l.07-.06h0l.09,0h.11l.09,0,0,0,.08.06a.09.09,0,0,1-.06-.06l.06.08a.33.33,0,0,1-.06-.1l0,.09a.19.19,0,0,1,0-.1v.08a.2.2,0,0,1,0-.11l0,.09,0,0a.38.38,0,0,0,0-.29.39.39,0,0,0-.17-.23.37.37,0,0,0-.29,0,.39.39,0,0,0-.23.17Z"/><path class="cls-8" d="M147.13,37.07a.63.63,0,0,0,0-1.25.63.63,0,0,0,0,1.25Z"/><path class="cls-8" d="M146.78,36.65l0,0,0,0v0s0,.06.06.07a.2.2,0,0,0,.12.08l.09,0h.18a.25.25,0,0,0,.09,0h0l.08-.05h0l.07-.08h0a.36.36,0,0,0,0-.09v0s0-.08,0-.1h0s0-.08,0-.11h0a.08.08,0,0,0,0,0,.14.14,0,0,0,0-.06h0a0,0,0,0,0,0,0l0,0v0l-.09-.07h0l-.09,0h0l-.1,0h0L147,36a.32.32,0,0,0-.22.17.34.34,0,0,0,0,.14.26.26,0,0,0,0,.15l0,.09a.4.4,0,0,0,.13.13l.09,0a.34.34,0,0,0,.2,0h-.15l-.09,0h0l-.07-.06s0,0,0,0l-.05-.08v0l0-.09v-.14l0-.09,0,0,.06-.08v0l.07-.06h0l.09,0h0l.1,0h0l.33.19-.06-.08a.35.35,0,0,0-.1-.11.23.23,0,0,0-.12-.06.26.26,0,0,0-.15,0,.24.24,0,0,0-.14,0l-.08,0a.4.4,0,0,0-.09.17l0,.1a.41.41,0,0,0,.05.19Z"/><path class="cls-8" d="M145.11,37.73l-.19.12a.28.28,0,0,0-.1.09.33.33,0,0,0-.07.13v.1a.41.41,0,0,0,0,.19l.05.07,0,.06.1.07h0l.11,0h0l.11,0h0l.13,0h0l.1,0h0l.09-.07h0l.07-.09h0l0-.1v0h0s0-.07,0-.1,0-.09,0-.13h0a.36.36,0,0,0,0-.09.86.86,0,0,0-.07-.1h0a.24.24,0,0,0-.08-.06.6.6,0,0,0-.11-.06h0l-.11,0-.13,0h0l-.09,0h0a.24.24,0,0,0-.11.09.54.54,0,0,0-.07.13.38.38,0,0,0,0,.15.23.23,0,0,0,0,.14l.06.08a.46.46,0,0,0,.17.09l.1,0a.35.35,0,0,0,.19-.06h0l-.09,0h-.13l-.09,0,0,0-.08-.06a0,0,0,0,1,0,0l-.06-.08v0l0-.09v-.12l0-.09s0,0,0,0l.06-.08s0,0,0,0l.08-.06,0,0,.09,0h.09l.09,0,0,0,.08.05,0,0,0,.08s0,0,0,0l-.14.51.19-.12a.22.22,0,0,0,.1-.09.24.24,0,0,0,.07-.13.26.26,0,0,0,0-.15.24.24,0,0,0,0-.14l-.06-.08a.42.42,0,0,0-.16-.09l-.1,0a.33.33,0,0,0-.19.06Z"/><path class="cls-8" d="M146.52,37.88a.38.38,0,0,0,0-.75.38.38,0,0,0,0,.75Z"/><path class="cls-8" d="M145.35,40.65a.38.38,0,0,0,0-.75.38.38,0,0,0,0,.75Z"/><path class="cls-8" d="M143,39.9a.5.5,0,0,0-.15.14.42.42,0,0,0,0,.1.45.45,0,0,0,0,.23.5.5,0,0,0,.05.13.65.65,0,0,0,.17.16.56.56,0,0,0,.23.06l.14,0a.42.42,0,0,0,.19-.06l0,0a.44.44,0,0,0,.11-.09,1,1,0,0,0,.08-.11s0-.08,0-.13,0-.09,0-.14a.55.55,0,0,0-.06-.22.44.44,0,0,0-.08-.11h0l-.08-.06h0a.55.55,0,0,0-.22-.06h0l-.12,0a.4.4,0,0,0-.2.11h0a.35.35,0,0,0-.07.09A.39.39,0,0,0,143,40a.26.26,0,0,0,0,.15.24.24,0,0,0,.07.13.32.32,0,0,0,.1.1l.09,0h.2l.09,0a.47.47,0,0,0,.14-.14h0l-.06.07h0l-.07.06h0l-.09,0h-.11l-.09,0h0l-.07-.06v0l-.05-.08v0l0-.09a0,0,0,0,1,0,0v-.16s0,0,0,0l0-.09s0,0,0,0l.06-.08,0,0,.08-.06,0,0,.08,0-.08,0h.13l.08,0h0l.08.06h0l.05.07v0l0,.09v.08h0v.08l0,.09h0l-.06.07h0l-.08.06h0a.24.24,0,0,0,.11-.09.33.33,0,0,0,.07-.13.26.26,0,0,0,0-.15.23.23,0,0,0,0-.14l-.06-.08a.51.51,0,0,0-.16-.09l-.1,0a.39.39,0,0,0-.19.06Z"/><path class="cls-8" d="M144.69,39.81a.38.38,0,0,0,0-.75.38.38,0,0,0,0,.75Z"/><path class="cls-8" d="M143.33,41.82a.38.38,0,0,0,0-.75.38.38,0,0,0,0,.75Z"/><path class="cls-1" d="M135.86,42.79l-10.53-3.3a19.74,19.74,0,0,1-3.51-7.29,25.14,25.14,0,0,1,.59-13c1.1-4.2,4.32-13.28,8-13.27.78,0,2,.41,3.42,3l3,12s.79,2.34-2.59,4.22,4.13.36,4.13.36a6.45,6.45,0,0,1,2.3,2.46c.65,1.48,1.82,4.67,1.82,4.67l-.55,1.92.07,2.5S139,43.78,135.86,42.79Z"/><path class="cls-2" d="M123,33.29c.06.18-2.12-12.12,1.63-16.48S123,33.29,123,33.29Z"/><path class="cls-2" d="M127.17,19.65l-.24-2.72a9.06,9.06,0,0,1,2.93-1.4c1-.26.83-.32,1.2-.15s.38.45.23.82S130,17.31,130,17.31Z"/><path class="cls-3" d="M126,24.86l.61-3.17s4.74-5.92,6.17-4.7a1.81,1.81,0,0,1,.2,2.62Z"/><path class="cls-3" d="M123.55,32.71s2.38-4.62,2.53-6.42l7.17-6.17s4.22-.18.94,2.85Z"/><path class="cls-4" d="M123.37,34.64s.14.57.44.41l3.66-2.27s1.52-1.22.83-2.21a7.29,7.29,0,0,0-1.64,1.12C125.87,32.41,123.37,34.64,123.37,34.64Z"/><path class="cls-4" d="M128.67,32.09l1.13-2.64s2.26-3.89,3.89-2.45c0,0,.71.51-.64,2A17.89,17.89,0,0,1,128.67,32.09Z"/><path class="cls-5" d="M129.67,32.35s8.29.11,8.13-1.71a2.12,2.12,0,0,0-1.59-2.06Z"/><path class="cls-6" d="M123.91,36s8.94,2.12,9.36-.87c0,0-2.22-2.27-4.13-2S123.91,36,123.91,36Z"/><path class="cls-6" d="M132.34,33.64s2.47,1.39,3.85,1.18,2.48-.6,2.84.25c0,0,2.75-1.49.27-2.57s-2.57-.31-4.76.41Z"/><path class="cls-6" d="M133.58,35.76s5.37-1.53,5.63.69a1.44,1.44,0,0,1-1.83,1.75l-1.57-.94Z"/><path class="cls-7" d="M124.39,37.07s4.39,2.87,6.37,2.16C130.76,39.23,127.13,36.15,124.39,37.07Z"/><path class="cls-7" d="M129.7,37.49s7.18,6.25,8.73,2.76c0,0-1.83-2.48-3.6-2.46s-2,.69-3.24.23A9.27,9.27,0,0,0,129.7,37.49Z"/><path class="cls-8" d="M127.84,10.59s-3,1.85-2.31,4,2.84-2.43,2.58-3.21Z"/><path class="cls-8" d="M128.75,14.47a1.91,1.91,0,0,1-.47.39.64.64,0,0,1-.4.08.32.32,0,0,1-.26-.3c0-.21.14-.36.26-.51.5-.67.36-1.79.94-2.36a.86.86,0,0,1,1.11-.11,1.18,1.18,0,0,1,.37,1.21,1.87,1.87,0,0,1-.27.57,5.86,5.86,0,0,1-1.25,1.19c-.27.21-.61.42-.89.25"/><path class="cls-8" d="M131,12.25a1.46,1.46,0,0,0-.29.41,1.67,1.67,0,0,0-.16.58.38.38,0,0,0,.18.33.42.42,0,0,0,.38,0,1.41,1.41,0,0,0,.67-.94,1.3,1.3,0,0,0,0-.65.62.62,0,0,0-.27-.35.48.48,0,0,0-.42-.05.51.51,0,0,0-.36.47,1.69,1.69,0,0,0,.07.38l0-.1a.14.14,0,0,1,0,.09l0-.1s0,0,0,.06.05-.09,0,0l-.06.1-.13.17a.66.66,0,0,0,0,.77.47.47,0,0,0,.51.16.71.71,0,0,0,.35-.27,1,1,0,0,0,.22-.68l-.74.1s0,0,0,0v-.12s0,0,0,.05,0-.08,0,0a.37.37,0,0,0,.13.51.39.39,0,0,0,.52-.14.72.72,0,0,0,.07-.52.38.38,0,0,0-.41-.27.38.38,0,0,0-.33.37v0l0,.13,0,0c0-.06,0-.08,0,0l0,.06,0,.05c0-.05,0-.06,0,0l0,0,0,0q.08-.06,0,0h0l.1,0h0l.1,0,.05,0,.06,0,0,0s0,.07,0,.05,0,0,0,0v.13s0,0,0-.06,0,.09,0,0l.06-.1a1.33,1.33,0,0,0,.14-.19.94.94,0,0,0,.11-.37c0-.13-.06-.24-.07-.37v.14s0,0,0,0-.06.06,0,0l-.12.07h0l-.1,0h0a.19.19,0,0,1-.12-.07s-.06-.08,0,0,0,0,0-.05a.06.06,0,0,1,0,0,.19.19,0,0,1,0,.07v-.1a.87.87,0,0,1,0,.28l0-.1a.9.9,0,0,1-.06.22.14.14,0,0,1,0,.06c0-.11,0-.05,0,0l-.06.1,0,0c-.05.07,0,0,0,0l-.07.09,0,0c-.06.05,0,0,0,0l-.1.06.57.32v.08a1.62,1.62,0,0,1,0-.19l0-.09s0,0,0,0l0-.05a.65.65,0,0,1,.09-.16h0c0,.05,0,0,0,0a.23.23,0,0,1,.07-.07.38.38,0,1,0-.54-.53Z"/><path class="cls-8" d="M125.07,15.82l.09-.29a.44.44,0,0,0,0-.2.64.64,0,0,0-.06-.18A.35.35,0,0,0,125,15a.32.32,0,0,0-.17-.09l-.13,0a.48.48,0,0,0-.26.07l-.1.08a.54.54,0,0,0-.13.22l-.09.28a.46.46,0,0,0,0,.2.6.6,0,0,0,.06.19.44.44,0,0,0,.13.14.56.56,0,0,0,.17.09l.13,0a.77.77,0,0,0,.26-.07l.1-.08a.61.61,0,0,0,.13-.22Z"/><path class="cls-8" d="M134,19.06h0l.07.06.11,0h.12a.47.47,0,0,0,.21-.06h0l.08-.06h0l0,0h0l.06-.08s0,0,0,0a.61.61,0,0,0,.05-.12s0-.08,0-.12v0a.6.6,0,0,0-.06-.22h0l0,0,0,0a.34.34,0,0,0-.09-.08.33.33,0,0,0-.14,0,.26.26,0,0,0-.15,0,.23.23,0,0,0-.12.06.26.26,0,0,0-.1.11l0,.09a.34.34,0,0,0,0,.2l0,.09a.4.4,0,0,0,.13.13h0l-.07-.06v0l-.06-.08v0l0-.09v-.12l0-.09,0,0,.06-.07,0,0,.07-.06s0,0,0,0l.09,0h.16l.09,0h0l.08.06h0a.42.42,0,0,0-.12-.08.37.37,0,0,0-.15,0,.32.32,0,0,0-.14,0,.25.25,0,0,0-.12.08l-.06.08a.37.37,0,0,0,0,.18v.1a.37.37,0,0,0,.1.17Z"/><path class="cls-8" d="M135.46,20.22a.63.63,0,0,0,0-1.25.63.63,0,0,0,0,1.25Z"/><path class="cls-8" d="M132.81,14.87l-.09,0,.15.07-.12-.07.13.1-.09-.09.1.12,0,0,.07.15a0,0,0,0,1,0,0l0,.17v0l0,.16v0l-.07.15v0l-.09.13h0l-.13.1h0l-.15.06h0l-.17,0h0l-.17,0h0l-.14-.06h0l-.13-.1.07.07.07.09.14.16a.53.53,0,0,0,.2.13.52.52,0,0,0,.24,0,.47.47,0,0,0,.24,0,.46.46,0,0,0,.2-.13l.1-.13a.59.59,0,0,0,.09-.32l0-.16a.61.61,0,0,0-.16-.28l-.17-.19-.08-.1,0,0-.13-.1h0l-.15-.06a.63.63,0,0,0-.19,0h0l-.16,0h0a.43.43,0,0,0-.16.07.53.53,0,0,0-.19.17l-.06.08s-.05.11-.06.16,0,.07,0,.09,0,.07,0,.1v.1s0,.06,0,.09h0l0,.09a.59.59,0,0,1,0,.08v0a.76.76,0,0,0,.11.14l0,0a1.56,1.56,0,0,0,.2.16l.1.06a1.09,1.09,0,0,0,.25.1.53.53,0,0,0,.25,0A.49.49,0,0,0,133,16a.4.4,0,0,0,.18-.16.53.53,0,0,0,.11-.21l0-.17a.68.68,0,0,0-.08-.31l-.1-.13a.71.71,0,0,0-.28-.16Z"/><path class="cls-8" d="M133.66,16.28a.65.65,0,0,0-.09.3.13.13,0,0,0,0,.06.78.78,0,0,0,0,.16.51.51,0,0,0,.16.25l.09.08.11,0a.39.39,0,0,0,.3,0,.59.59,0,0,0,.22-.12.54.54,0,0,0,.16-.26v0s0-.08,0-.12a.47.47,0,0,0,0-.17.57.57,0,0,0-.16-.28.81.81,0,0,0-.28-.17.57.57,0,0,0-.26,0,.53.53,0,0,0-.21.11.68.68,0,0,0-.15.26.69.69,0,0,0,0,.32s0,.05,0,.07a1.11,1.11,0,0,0,.07.16.63.63,0,0,0,.11.12l.09.08.12.05h0l.12,0a.47.47,0,0,0,.17,0l.12,0,0,0a.77.77,0,0,0,.18-.18.59.59,0,0,0,0-.08,1.34,1.34,0,0,0,.07-.18.78.78,0,0,0,0-.37.53.53,0,0,0-.13-.23.46.46,0,0,0-.21-.13.43.43,0,0,0-.25,0,.46.46,0,0,0-.21.13.25.25,0,0,0-.08.12.32.32,0,0,0,0,.14.4.4,0,0,0,0,.15.42.42,0,0,0,.08.12.41.41,0,0,0,.26.11.41.41,0,0,0,.27-.11l0,0-.08.06h0l-.09,0h0l-.1,0h0l-.1,0h0l-.09,0,0,0-.08-.06,0,0-.06-.07v0l0-.08s0,0,0,0l0-.1a.11.11,0,0,1,0,.08l0-.1a1.09,1.09,0,0,1-.05.17l0-.09a.56.56,0,0,1,0,.08l.06-.07-.05,0,.08-.06,0,0,.09,0,0,0h0l.1,0h0l.09,0,0,0,.07.05,0,0,.06.08a.25.25,0,0,1,0-.07l0,.09a.32.32,0,0,1,0-.09l0,.1a.08.08,0,0,1,0-.07l0,.1s0-.05,0-.07l0,.09a.08.08,0,0,1,0,0l-.06.08,0,0-.07.06h0l-.09,0H134l-.09,0,.08.05-.08-.06.06.06-.06-.08,0,.05,0-.09s0,0,0,.06l0-.1a0,0,0,0,1,0,0l0-.1,0,.05,0-.09a.09.09,0,0,1,0,0l.06-.08,0,0,.07-.06,0,0,.09,0h.09l.09,0,0,0,.07.06,0,0,.06.08,0,0,0,.09s0-.05,0-.07l0,.1a.11.11,0,0,1,0-.08l0,.1s0,0,0-.06l0,.09,0,0a.34.34,0,0,0,.05-.14.38.38,0,0,0,0-.15.33.33,0,0,0-.07-.13.22.22,0,0,0-.1-.09.38.38,0,0,0-.29,0,.44.44,0,0,0-.23.17Z"/><path class="cls-8" d="M133.47,14.69l.09.05-.07-.06,0,.05-.06-.08,0,0,0-.08s0,0,0,.05l0-.1v0l0-.1s0,0,0,.06a.66.66,0,0,0,0,.15.78.78,0,0,0,0,.14.11.11,0,0,0,0,.05l0,0,0,0,0,0a.4.4,0,0,0,.29.12H134l.11-.05.11-.08,0,0a.56.56,0,0,0,.13-.24v0a.49.49,0,0,0,0-.12.33.33,0,0,0,0-.14v0a.47.47,0,0,0,0-.1v0l-.07-.09s0,0,0,0a.36.36,0,0,0-.12-.08.38.38,0,0,0-.13-.06l-.15,0a.76.76,0,0,0-.15,0l-.06,0a.24.24,0,0,0-.13.07.32.32,0,0,0-.1.1.33.33,0,0,0,0,.14.26.26,0,0,0,0,.15.34.34,0,0,0,.17.22l.09,0a.34.34,0,0,0,.2,0h-.07l.06,0-.09,0,.06,0-.08-.06,0,0-.06-.08a.08.08,0,0,1,0,0l0-.09s0,0,0,0l0-.1v0l0-.09s0,0,0,.05l0-.09,0,0,.06-.08,0,0,.08-.06,0,0,.09,0h.15l.09,0h0l.08.06h0l.06.08v0l0,.09v.15s0,0,0-.05a.77.77,0,0,0,0-.15.5.5,0,0,0-.07-.29.44.44,0,0,0-.08-.11.08.08,0,0,0,0,0,.66.66,0,0,0-.17-.12.23.23,0,0,0-.14,0,.26.26,0,0,0-.15,0,.33.33,0,0,0-.13.07.24.24,0,0,0-.09.11.35.35,0,0,0,0,.28.44.44,0,0,0,.17.23Z"/><path class="cls-8" d="M134.84,26.9a1.6,1.6,0,0,0-.35.28,2,2,0,0,0-.18.23l-.09.15a.45.45,0,0,0-.07.25.41.41,0,0,0,0,.19.36.36,0,0,0,.11.16.45.45,0,0,0,.22.13l.18,0,.19,0a1,1,0,0,0,.24-.08,1.53,1.53,0,0,0,.21-.14,1.06,1.06,0,0,0,.17-.2.66.66,0,0,0,.11-.24.53.53,0,0,0,0-.12c0-.05,0-.09,0-.13a.76.76,0,0,0,0-.16.32.32,0,0,0,0-.09.46.46,0,0,0-.13-.19.44.44,0,0,0-.19-.12.52.52,0,0,0-.23-.06.47.47,0,0,0-.17,0,.6.6,0,0,0-.26.14.64.64,0,0,0-.18.43.46.46,0,0,0,.05.2.42.42,0,0,0,.26.26.33.33,0,0,0,.19,0h.14a.61.61,0,0,0,.22-.13.48.48,0,0,0,.14-.36v0l0,.14v0l-.05.12a0,0,0,0,0,0,0l-.07.1v0l-.1.08s0,0,0,0l-.11.06H135l-.12-.05,0,0-.1-.08h0l-.07-.1v0l-.05-.12a.09.09,0,0,1,0,.05v-.2a.24.24,0,0,1,0,.08l0-.12a.21.21,0,0,1-.06.1l.08-.1-.09.09.1-.08a.41.41,0,0,1-.11.07l.12-.05-.11,0,.13,0h-.1l.13,0h0l.3.73.12-.19-.07.1a1.15,1.15,0,0,1,.22-.22l-.1.07.09-.06a.5.5,0,0,0,.23-.3.44.44,0,0,0,0-.2.3.3,0,0,0-.06-.18l-.08-.1a.38.38,0,0,0-.22-.13l-.13,0a.43.43,0,0,0-.25.07Z"/><path class="cls-8" d="M136.58,27.57a.63.63,0,0,0,0-1.25.63.63,0,0,0,0,1.25Z"/><path class="cls-8" d="M136.93,27.55l0,0-.11.13v0h0a1.11,1.11,0,0,0-.07.16s0,0,0,0,0,.14,0,.17h0s0,.08,0,.1a.51.51,0,0,0,0,.09s0,.07,0,.08a.63.63,0,0,0,0,.09h0l.1.13h0l.13.1h0l.15.06h.24l.18,0h.07l.16-.07.06,0,.13-.11h0l0,0,.1-.13a.62.62,0,0,0,0-.63s0,0,0,0a1.49,1.49,0,0,0-.12-.14l-.14-.11,0,0-.17-.07h0l-.16,0h0l-.19,0a.43.43,0,0,0-.21.11.44.44,0,0,0-.16.17.51.51,0,0,0-.07.24.43.43,0,0,0,0,.25l.06.14a.69.69,0,0,0,.22.23l.15.06a.65.65,0,0,0,.34,0h0l-.17,0h0l-.17,0h0l-.15-.07,0,0-.13-.1,0,0-.09-.13s0,0,0,0l.1-.76s0,0,0,.05l.13-.1-.07,0,.14-.06-.07,0,.16,0h0l.16,0h0l.15.06h0l.12.1h0l.1.12h0l.06.15v0l0,.16v0l0,.17a0,0,0,0,1,0,0l-.07.15,0,0-.1.13,0-.05a.37.37,0,0,0,.13-.2A.53.53,0,0,0,138,28a.48.48,0,0,0-.06-.24.34.34,0,0,0-.13-.2l-.12-.1a.59.59,0,0,0-.32-.09l-.16,0a.61.61,0,0,0-.28.16Z"/><path class="cls-8" d="M138.35,26.92s0,.08,0,.11h0s0,0,0,0v.08s0,.05,0,.07v0h0a.69.69,0,0,0,0,.1v0h0l.06.08a.37.37,0,0,0,.17.1.34.34,0,0,0,.2,0l.1,0h0a.49.49,0,0,0,.16-.16h0l0-.1v0h0v-.1h0a.13.13,0,0,0,0-.06.17.17,0,0,0,0-.07,1,1,0,0,0,0-.1v0l0,0,0-.05s0,0,0,0l-.05,0-.11-.05h-.15a.25.25,0,0,0-.14,0,.32.32,0,0,0-.1.1.21.21,0,0,0-.07.13V27a.29.29,0,0,0,.05.18l.06.08a.34.34,0,0,0,.16.1h0l-.09,0h0l-.08-.06,0,0-.06-.08a0,0,0,0,1,0,0l0-.09V27a0,0,0,0,1,0,0l0-.09v0l.06-.08,0,0,.07-.06h0l.09,0h0l.36.09h0l.06.07,0,0,0,.09s0,0,0-.06l0,.1a.08.08,0,0,1,0-.07l0,.1h0a.38.38,0,0,0,0-.15.25.25,0,0,0,0-.14.32.32,0,0,0-.1-.1.24.24,0,0,0-.13-.07h-.1a.34.34,0,0,0-.19.05l-.07.06a.34.34,0,0,0-.1.16Z"/><path class="cls-8" d="M139.82,30.05a.58.58,0,0,0,.11-.15,1.27,1.27,0,0,0,.06-.18,1.36,1.36,0,0,0,0-.2,1.25,1.25,0,0,0,0-.19.72.72,0,0,0-.14-.24l-.11-.09a.43.43,0,0,0-.18-.06.41.41,0,0,0-.19,0l-.1,0h0l-.09.07s0,0,0,.05l0,0a.36.36,0,0,0,0,.11.22.22,0,0,0,0,.11v0a.25.25,0,0,0,0,.12.42.42,0,0,0,0,.1v0l.11.15-.06-.08,0,0,0-.09v0l0-.1v0l0-.1h0a.26.26,0,0,0,0,.15.33.33,0,0,0,0,.14.36.36,0,0,0,.1.11.31.31,0,0,0,.13.06.37.37,0,0,0,.29,0l.07-.06a.37.37,0,0,0,.1-.17.59.59,0,0,0,0-.23s0-.07,0-.11v0l-.12-.14.06.07,0,0,0,.09v.14h0l0,.08,0,0-.06.08v0l-.07.06h0l-.09,0h-.13l-.09,0h0l-.08-.06,0,0-.06-.08a.21.21,0,0,1,0,.06l0-.09a.19.19,0,0,1,0,.08v-.1a.3.3,0,0,1,0,.1l0-.09a.25.25,0,0,1,0,.07l.06-.07h0a.28.28,0,0,0-.08.12.27.27,0,0,0,0,.15.22.22,0,0,0,0,.14.2.2,0,0,0,.08.12.33.33,0,0,0,.26.11.35.35,0,0,0,.27-.11Z"/><path class="cls-8" d="M137.71,31a1.11,1.11,0,0,0,.07.16h0a.64.64,0,0,0,.25.24l.16.07h0l.18,0h0a.83.83,0,0,0,.37-.11.8.8,0,0,0,.28-.27c0-.06.06-.14.08-.19s0,0,0,0l0-.19a0,0,0,0,0,0,0,.73.73,0,0,0-.09-.35h0l-.09-.12,0,0h0l-.13-.1h0a.7.7,0,0,0-.34-.1l-.18,0h0l-.15.06a.45.45,0,0,0-.14.11h0a.71.71,0,0,0-.1.14h0l-.06.15v0h0l0,.16h0l0,.17h0a.56.56,0,0,0,.07.16.46.46,0,0,0,.16.18.53.53,0,0,0,.21.11.43.43,0,0,0,.25,0,.48.48,0,0,0,.23-.07l.13-.1a.61.61,0,0,0,.16-.28l0-.16a.69.69,0,0,0-.08-.32h0l.06.15v0l0,.16v0l0,.17a0,0,0,0,0,0,0l-.06.15v0l-.1.13,0,0-.13.1h0l-.15.06h0l-.16,0h0l-.16,0h0l-.15-.06h0l-.13-.1,0,0-.1-.13s0,0,0,0l-.06-.15a.08.08,0,0,0,0,0l0-.17a0,0,0,0,1,0,0l0-.17s0,0,0,0l.07-.15,0,.05.1-.13,0,0,.13-.09h0l.15-.06h0l.16,0h0l.17,0s0,0,0,0l.15.07h0l.13.09h0l.09.13v0l.07.15h0a.43.43,0,0,0-.11-.21.44.44,0,0,0-.17-.16.42.42,0,0,0-.24-.07.43.43,0,0,0-.25,0l-.14.06a.69.69,0,0,0-.23.22l-.06.15a.65.65,0,0,0,0,.34Z"/><path class="cls-8" d="M139.89,31.43a.72.72,0,0,0,0,.25.67.67,0,0,0,0,.24,1.36,1.36,0,0,0,.1.21.4.4,0,0,0,.1.12.63.63,0,0,0,.12.11l.06,0a.55.55,0,0,0,.24.07.46.46,0,0,0,.37-.15.23.23,0,0,0,.07-.1.37.37,0,0,0,.05-.11.47.47,0,0,0,0-.17.65.65,0,0,0-.09-.3.81.81,0,0,0-.12-.14l-.14-.11a.94.94,0,0,0-.15-.06.57.57,0,0,0-.18,0h.08l.09,0h0l.08.06h0l.06.08h0l0,.09h0l0,.1h0l0,.1h0l0,.09h0l-.06.07h0l-.08.05h0l-.09,0h-.15a.34.34,0,0,0,.2,0,.33.33,0,0,0,.13-.07.28.28,0,0,0,.09-.1.35.35,0,0,0,.06-.19.51.51,0,0,0-.06-.21.86.86,0,0,0-.07-.1l-.1-.07-.1,0h0a.42.42,0,0,0-.33,0l-.09.07-.07.09a.42.42,0,0,0,0,.1.38.38,0,0,0,0,.15.39.39,0,0,0,.05.14.19.19,0,0,0,.1.1.19.19,0,0,0,.12.07.36.36,0,0,0,.29,0l.08-.06a.32.32,0,0,0,.09-.16h0l0,.09h0l-.06.07h0l-.08.06h0l-.09,0h-.15l-.09,0h0l-.08-.06h0l-.06-.08h0l0-.08h0l0-.1h0l.47-.36-.11,0h0l-.11,0h0l-.05,0-.05,0h0l-.08.06-.06.08s0,0,0,.05l0,.05v.16a.3.3,0,0,0,.05.14l.06.08a.37.37,0,0,0,.19.11l.13,0h-.1l.08,0-.09,0,.09.05-.08-.06.07.07-.06-.08a.16.16,0,0,1,0,.07l0-.09s0,0,0,.06l0-.1a.13.13,0,0,1,0,.06v-.1s0,0,0,0l0-.09,0,0,.06-.07,0,0,.08-.06h0l.09,0h.1l.09,0-.07,0,.08.06a.3.3,0,0,1-.08-.08l.06.08a.3.3,0,0,1-.06-.11l0,.09a.74.74,0,0,1,0-.14l0,.1a.33.33,0,0,1,0-.14l0,.09v0a.38.38,0,0,0,0-.15.39.39,0,0,0-.05-.14.55.55,0,0,0-.22-.17.36.36,0,0,0-.29,0,.34.34,0,0,0-.17.22Z"/><path class="cls-8" d="M141.29,33.91a.63.63,0,0,0,0-1.25.63.63,0,0,0,0,1.25Z"/><path class="cls-8" d="M141.1,33.49l.08.06,0,0,.09,0a.09.09,0,0,0,.07,0l.09,0h0l.06-.05h0l0-.05v0l0-.07v0a.06.06,0,0,1,0,0v0a.19.19,0,0,0,0-.08v0h0a.14.14,0,0,0,0-.06l0,0,0,0h0L141.5,33h0l-.05,0h-.18l-.06,0h0l-.07.07a.22.22,0,0,0-.05.08.35.35,0,0,0,0,.2l0,.05a.24.24,0,0,0,.11.06h.06a.28.28,0,0,0,.13,0h0l-.06,0h-.07l-.06,0h0l-.05,0s0,0,0,0l0,0h0l0-.06a0,0,0,0,1,0,0v-.1s0,0,0,0l0-.06s0,0,0,0l0,0,0,0,.05,0h0l.3,0-.07-.07a.26.26,0,0,0-.09-.05l-.09,0-.1,0-.08.05,0,.06a.24.24,0,0,0,0,.12v.07a.24.24,0,0,0,.06.11Z"/><path class="cls-8" d="M139.62,35.48l-.13.21-.05.12a.27.27,0,0,0,0,.2.27.27,0,0,0,0,.12.44.44,0,0,0,.1.16l0,0h0l.1.08,0,0a1.16,1.16,0,0,0,.15.06h0l.14,0h0a.44.44,0,0,0,.16,0,.69.69,0,0,0,.15-.07.38.38,0,0,0,.13-.09h0l.08-.11h0a.61.61,0,0,0,.07-.14s0,0,0,0h0s0-.1,0-.14v0h0a.63.63,0,0,0-.08-.3h0l-.08-.1h0l-.06,0-.05,0h0l-.06,0a.15.15,0,0,0-.07,0h0l-.15,0a.45.45,0,0,0-.16,0l-.15.06-.1.08h0a.44.44,0,0,0-.08.11.32.32,0,0,0-.06.18.34.34,0,0,0,0,.2.39.39,0,0,0,.09.17.43.43,0,0,0,.14.13l.12.05a.42.42,0,0,0,.27,0l.12-.05a.52.52,0,0,0,.18-.18h0l-.08.1h0l-.1.07h0l-.12.05H140l-.11-.05s0,0,0,0l-.1-.08v0l-.07-.1v0l0-.12a0,0,0,0,0,0,0l0-.13v0l0-.13s0,0,0,0l.05-.12a.08.08,0,0,1,0,0l.08-.1,0,0,.11-.07h0l.12,0h0l.13,0h0l.13,0h0l.12,0,0,0,.11.08,0,0,.08.6.14-.2a.6.6,0,0,0,.06-.19.45.45,0,0,0,0-.2.56.56,0,0,0-.09-.17.44.44,0,0,0-.14-.13l-.12,0a.61.61,0,0,0-.27,0l-.12,0a.77.77,0,0,0-.18.18Z"/><path class="cls-8" d="M141,35.3a.63.63,0,0,0,0-1.25.63.63,0,0,0,0,1.25Z"/><path class="cls-8" d="M138.52,38.77a.34.34,0,0,0,0,.32v0s0,0,.05.06a.28.28,0,0,0,.15.08.25.25,0,0,0,.17,0l.11,0a.47.47,0,0,0,.13-.11.52.52,0,0,0,.11-.19.6.6,0,0,0,0-.23.5.5,0,0,0-.1-.19h0a.15.15,0,0,0-.06,0,.11.11,0,0,0-.07,0l-.09,0a.36.36,0,0,0-.2.06.32.32,0,0,0-.11.12.34.34,0,0,0-.05.17.15.15,0,0,0,0,.09.22.22,0,0,0,0,.08.27.27,0,0,0,.18.08.33.33,0,0,0,.18-.08l0,0a.19.19,0,0,0,0-.12h0v0l0,.06v0l0,.05s0,0,0,0l-.05,0h0l-.06,0h-.06l-.06,0,0,0-.05,0,0,0,0-.05,0,0,0-.06a.07.07,0,0,1,0,.05v-.07a.06.06,0,0,1,0,.06v-.07a.13.13,0,0,1,0,.06l0-.06,0,.05,0-.05-.06.06.05,0-.05,0,.06,0h.05l.06,0h0l.05,0h0l0,0v0l0,.06V39l0,.06h0a.21.21,0,0,0,0-.19.26.26,0,0,0-.12-.15.25.25,0,0,0-.19,0,.24.24,0,0,0-.15.11Z"/><path class="cls-8" d="M132.44,11a.58.58,0,0,0,0,.19.68.68,0,0,0,.14.23.35.35,0,0,0,.13.11l0,0,.13.05h0l.13,0,.14,0h0a.76.76,0,0,0,.23-.13l0,0a.44.44,0,0,0,.08-.11.43.43,0,0,0,0-.12s0,0,0,0,0-.1,0-.14v0a1.23,1.23,0,0,0,0-.19.51.51,0,0,0-.07-.17.65.65,0,0,0-.1-.15l0,0a.39.39,0,0,0-.1-.08.52.52,0,0,0-.13-.06l-.14,0h0l-.15,0a.92.92,0,0,0-.25.15.7.7,0,0,0-.13.16l0,.05a.78.78,0,0,0,0,.14.76.76,0,0,0,0,.16V11a.28.28,0,0,0,0,.15.27.27,0,0,0,.19.19.28.28,0,0,0,.15,0,.39.39,0,0,0,.26-.11l.06-.08a.32.32,0,0,0,.05-.19v0a.32.32,0,0,1,0-.09l0,.09s0,0,0-.08l0,.08s0,0,.06-.07l-.08.06.07,0-.09,0h0L133,11l0,0-.08-.06A.12.12,0,0,1,133,11l-.06-.08a.25.25,0,0,1,0,.07l0-.09a.19.19,0,0,1,0,.1v-.09a.29.29,0,0,1,0,.09l0-.09,0,.06.06-.08,0,0,.07-.06,0,0,.09,0-.06,0h.14l-.07,0,.09,0-.06,0,.08.06a.08.08,0,0,1,0,0l.05.08,0-.06,0,.09s0,0,0-.06l0,.1v0a.43.43,0,0,0-.11-.26.42.42,0,0,0-.12-.08.4.4,0,0,0-.15,0,.35.35,0,0,0-.26.11.36.36,0,0,0-.11.26Z"/><path class="cls-8" d="M132.43,13.58a.55.55,0,0,0,.22,0h.24l.16-.07h0l.13-.11h0l0,0,.12-.15v0h0l.06-.15v-.08a.49.49,0,0,0,0-.17v-.08l-.06-.15h0l0,0h0l-.11-.14-.05,0-.13-.11h0l0,0h0l-.16-.07h0l-.16,0a.39.39,0,0,0-.24,0,.25.25,0,0,0-.14.08.44.44,0,0,0-.16.17l-.12.15a.51.51,0,0,0-.07.24.43.43,0,0,0,0,.25.53.53,0,0,0,.11.21.46.46,0,0,0,.18.16l.15.06a.62.62,0,0,0,.33,0l.15-.06a.61.61,0,0,0,.22-.23l.12-.14-.71.28.05,0-.15-.07.06,0-.13-.1.06.06-.1-.13,0,.06v-.63l0,0,.1-.12,0,0,.13-.1s0,0-.05,0l.15-.06-.05,0,.16,0h0l.17,0h0a.42.42,0,0,0-.25,0,.48.48,0,0,0-.23.07.52.52,0,0,0-.17.16.43.43,0,0,0-.12.22l0,.16a.59.59,0,0,0,.09.32l.09.12a.62.62,0,0,0,.28.17Z"/><path class="cls-8" d="M140.85,37.61h0a.27.27,0,0,0-.08-.07l-.12-.05a.62.62,0,0,0-.27,0h0l-.12.06a.55.55,0,0,0-.19.18l0,0a.58.58,0,0,0-.05.14.66.66,0,0,0,0,.28v0a.47.47,0,0,0,.05.1.44.44,0,0,0,.08.11l0,0,.09.07h0l.11,0h0l.13,0a.46.46,0,0,0,.26-.07h0l.09-.07a.39.39,0,0,0,.08-.1s0,0,0,0a.69.69,0,0,0,.05-.13.68.68,0,0,0,0-.14v0a.59.59,0,0,0,0-.14.06.06,0,0,0,0,0,.53.53,0,0,0-.13-.23h0l-.09-.07a.67.67,0,0,0-.12-.06.57.57,0,0,0-.29,0h0l-.11.05-.11.08,0,0-.09.12a.69.69,0,0,0-.05.13v0a.49.49,0,0,0,0,.12.38.38,0,0,0,.11.27.25.25,0,0,0,.12.08.32.32,0,0,0,.14,0h.1a.42.42,0,0,0,.17-.1l.05-.08a.31.31,0,0,0,.06-.19v0l0,.1s0,0,0-.06l0,.09,0,0,0,.08a.1.1,0,0,1,0,0l-.08.06,0,0-.09,0h-.08l-.09,0s0,0,0,0l-.07-.06,0,0-.06-.08a.08.08,0,0,1,0,.05l0-.09s0,0,0,.06v-.12s0,0,0,.06l0-.09s0,0,0,.05l.06-.08,0,0,.08-.06,0,0,.09,0h.09l.09,0-.05,0,.08.06,0,0,.06.07a.05.05,0,0,1,0,0l0,.09s0,0,0-.05l0,.1a0,0,0,0,1,0,0l0,.1s0,0,0,0l0,.09s0,0,0,0l-.06.08,0,0-.08,0,.05,0-.09,0,0,0-.1,0h0l-.1,0h0l-.09,0h0l-.08-.06,0,0a.2.2,0,0,0,.12.08.17.17,0,0,0,.14,0,.21.21,0,0,0,.15,0,.28.28,0,0,0,.12-.08l.06-.07a.41.41,0,0,0,.05-.19l0-.1a.4.4,0,0,0-.09-.17Z"/><path class="cls-8" d="M138.78,40.53a.25.25,0,0,0,0-.5.25.25,0,0,0,0,.5Z"/><path class="cls-8" d="M139.69,40.25a.38.38,0,0,0,0-.75.38.38,0,0,0,0,.75Z"/><path class="cls-8" d="M132.75,9.53a.63.63,0,0,0,0-1.25.63.63,0,0,0,0,1.25Z"/><path class="cls-8" d="M129.81,10.41a1.39,1.39,0,0,0,1.13-.72,2.07,2.07,0,0,0,.3-1.14,1.19,1.19,0,0,0-.85-1.18A1.35,1.35,0,0,0,129,8a2.68,2.68,0,0,0-.28.59,2.92,2.92,0,0,0-.15.65,1.05,1.05,0,0,0,.29.83,2.1,2.1,0,0,0,.56.37,2,2,0,0,0,1.43.24,1.21,1.21,0,0,0,.93-1.15,1.3,1.3,0,0,0-1-1.26,1.28,1.28,0,0,0-1.52.8.62.62,0,0,0,1.14.48,3.28,3.28,0,0,0,.36-.84l-1.23-.17v.41a.67.67,0,0,0,.18.44.64.64,0,0,0,.45.18.92.92,0,0,0,.39-.11.81.81,0,0,0,.28-.27.84.84,0,0,0,.11-.66.59.59,0,0,0-.29-.37.62.62,0,0,0-.48-.06.63.63,0,0,0-.37.29.71.71,0,0,0-.06.48v0l0-.16v0l0-.16a.14.14,0,0,1,0,.07l.06-.15c0,.06,0,0,.05-.06s.12-.08.06-.06l.15-.06h0l.16,0h0l.62.63V8.53a.63.63,0,0,0-1.23-.16,2.29,2.29,0,0,1-.12.37l.06-.15a2,2,0,0,1-.17.32l1.15.48s0,0,0-.05l-.06.15s0-.05,0-.08-.08.1,0,.05-.13.07,0,0l.08,0-.15.06a.73.73,0,0,1,.2,0l-.17,0h.22l-.17,0a.65.65,0,0,1,.21.06l-.14-.06.1.06c.1.05-.1-.1,0,0l0,0,0-.07s0,.07,0,.11l-.06-.15a1.09,1.09,0,0,1,.05.17l0-.16v.14l0-.16a.58.58,0,0,1,0,.14l.06-.15-.06.1.05-.06,0,0s0,0,.07-.05l0,0-.1.05.15-.06-.23.06.17,0h-.24l.17,0a1.43,1.43,0,0,1-.39-.11l.15.07-.39-.2a.62.62,0,0,1-.16-.1s.12.09,0,0,0,0,.05.07l0-.06.07.15a.27.27,0,0,1,0-.12l0,.17a.43.43,0,0,1,0-.16l0,.16a2.85,2.85,0,0,1,.19-.63l-.06.15a.89.89,0,0,1,.08-.17.43.43,0,0,1,0-.07c.07-.11-.06.07,0,0l.06-.06c.05,0,.08,0,0,0l.15-.09-.14.07.17,0-.17,0h.14l-.16,0,.13,0L130,8.55s.06,0,.08,0-.12-.11-.06,0-.08-.14,0-.05l0,.07L130,8.42a.83.83,0,0,1,.06.21l0-.16a1.63,1.63,0,0,1,0,.31l0-.17a1.46,1.46,0,0,1-.11.41l.07-.15-.08.16-.06.09c0,.08.11-.12,0,0l-.12.11c.12-.13.1-.07,0,0l-.1,0,.15-.06-.15,0,.17,0h-.05a.69.69,0,0,0-.45.18.67.67,0,0,0-.18.44.65.65,0,0,0,.63.63Z"/><path class="cls-1" d="M120.56,32.36a12.07,12.07,0,0,0-1.65-1.09c-.24.16,0,.53.25.75a4.77,4.77,0,0,1,1.42,2.59,2.53,2.53,0,0,0,.42,1.28,4.36,4.36,0,0,0,.83.57,4.65,4.65,0,0,1,1.25,1.47L126.29,43a18.25,18.25,0,0,0-6.1-10.64l5.14,7.11"/><path class="cls-1" d="M120.33,32.41a2.74,2.74,0,0,0-1.15-1.11.64.64,0,0,0-.86.22,1.41,1.41,0,0,0,.05,1.38,2,2,0,0,0,.86.76,1.51,1.51,0,0,0,.33.13.92.92,0,0,0,.59,0,.88.88,0,0,0,.52-.62,1.05,1.05,0,0,0-.13-.81,2.07,2.07,0,0,0-.39-.45,4.26,4.26,0,0,0-.53-.39,3.41,3.41,0,0,0-.61-.29.62.62,0,0,0-.48.06.63.63,0,0,0-.29.37.62.62,0,0,0,.06.48l.1.13a.61.61,0,0,0,.28.16l.06,0-.15-.06a2.57,2.57,0,0,1,.66.38l-.13-.1a2.28,2.28,0,0,1,.39.37l-.1-.13a.6.6,0,0,1,.09.15l-.06-.15a.5.5,0,0,1,0,.13l0-.17a.14.14,0,0,1,0,.09l0-.17,0,.09.07-.15,0,.08.1-.13a.12.12,0,0,1,0,.05l.13-.1-.06,0,.15-.07-.06,0,.17,0h-.07l.16,0-.14,0,.15.06a2.3,2.3,0,0,1-.43-.25l.13.1a1,1,0,0,1-.23-.23l.09.12a.72.72,0,0,1-.12-.21l.06.15a1.6,1.6,0,0,1,0-.21l0,.17a.67.67,0,0,1,0-.2l0,.17a1.09,1.09,0,0,1,0-.17l-.07.15,0-.05-.85.22a2.56,2.56,0,0,1,.35.22l-.12-.09a2.79,2.79,0,0,1,.39.38l-.1-.12a1.59,1.59,0,0,1,.18.27.66.66,0,0,0,.37.29.7.7,0,0,0,.49-.06.65.65,0,0,0,.22-.86Z"/><path class="cls-1" d="M125.09,41.35a4.66,4.66,0,0,0,.55,1.93.62.62,0,0,0,.54.31.61.61,0,0,0,.54-.31,1.4,1.4,0,0,0,0-1.08,2.49,2.49,0,0,0-.22-.43l-.1-.17s-.07-.16-.1-.17,0,.12,0,0,0-.06,0-.09,0-.15,0-.06v0a4.5,4.5,0,0,0-.08-.51,2.22,2.22,0,0,0-.48-.86.63.63,0,0,0-.89,0,.64.64,0,0,0,0,.88l.06.06c-.06-.07-.06-.08,0,0A.64.64,0,0,0,125,41c.06.11,0-.12,0,0l0,.15s0,.23,0,.06a.62.62,0,0,1,0,.19,2.15,2.15,0,0,0,.09.44,5.57,5.57,0,0,0,.37.68s.07.1.06.11,0-.09,0,0l0,.08c0,.07,0,.06,0,0v.09c0,.07,0,.06,0,0,0,.06,0,0,0,0h1.08l-.1-.18,0-.08s0-.11,0,0,0,0,0,0a.36.36,0,0,1,0-.09l-.06-.19c0-.13-.06-.26-.08-.38a.29.29,0,0,1,0-.09c0-.1,0,0,0,0a.62.62,0,0,0,0-.23.63.63,0,0,0-1.25,0Z"/><path class="cls-1" d="M119.77,32.07c-1.61,0-3-1.21-4.12-2.23a9.51,9.51,0,0,1-1.42-1.55,4.17,4.17,0,0,1-.51-1,4.05,4.05,0,0,1-.12-.5,1.75,1.75,0,0,1,0-.33c0-.05,0-.19,0-.16l-.29.05c-.05,0-.05,0,0,.05.27.05.38,0,.32-.14-.07-.31-.8-.13-.73.19.19.82,1.67,0,1-.49a.66.66,0,0,0-.93.25,2,2,0,0,0,.09,1.22,5.64,5.64,0,0,0,1.5,2.25,16.51,16.51,0,0,0,2.21,1.88,5.06,5.06,0,0,0,3,1c.39,0,.57-.51.07-.5Z"/><path class="cls-1" d="M120.08,31.79a9.5,9.5,0,0,1-1.9-3.61,9.58,9.58,0,0,1-.5-2,7.71,7.71,0,0,1-.08-1.07c0-.12,0-1,.1-1l-.44-.16.29-.06c-.32-.12-.85.34-.42.51s1.08-.16.86-.64a.34.34,0,0,0-.43-.16c-.71.25-.7,1-.69,1.63a8.79,8.79,0,0,0,.38,2.49,16,16,0,0,0,.94,2.41,6.81,6.81,0,0,0,1.23,2c.24.24.92-.07.66-.33Z"/><path class="cls-9" d="M12.56,48.94c.27-.39.46-.65.77-.65a.89.89,0,0,1,.76.76,1.47,1.47,0,0,1-.38.87c-1,1.34-2.74,3.7-6.05,3.7A5.58,5.58,0,0,1,2.1,47.87C2.1,43.11,4.42,40,7.39,40a3.09,3.09,0,0,1,3.16,3.39c0,1.06-.54,1.71-1.33,1.71a1.17,1.17,0,0,1-1.22-1c0-.53.38-.76.38-1.21a1.06,1.06,0,0,0-1-1.11c-1.14,0-3,2.29-3,6.13,0,2.74,1.45,4,3.69,4C10.47,51.9,11.84,49.92,12.56,48.94Z"/><path class="cls-9" d="M19.11,49.77c0-2,.95-4.18.95-5.21,0-.57-.23-.69-.95-.69a9.38,9.38,0,0,1-1.52-.11,54.19,54.19,0,0,1-2.93,4.83c-.54.8-.95,1.45-1.37,1.45a.65.65,0,0,1-.65-.69c0-.49.23-.83.76-1.63.8-1.18,1.83-2.86,2.67-4.42a3.44,3.44,0,0,1-2.36-3,3.08,3.08,0,0,1,3-3.31c1.56,0,2.55.84,2.55,2.21a7.65,7.65,0,0,1-.76,2.66,12.9,12.9,0,0,0,1.83.08c1.33,0,2.24.42,2.24,1.37,0,2-1,4.57-1,6.24a1.46,1.46,0,0,0,1.52,1.64c1.33,0,2.4-1.3,3.12-2.28.26-.39.46-.65.76-.65a.89.89,0,0,1,.76.76,1.41,1.41,0,0,1-.38.87c-.95,1.34-2.47,3.28-4.6,3.28A3.44,3.44,0,0,1,19.11,49.77ZM16.9,41.51a5.08,5.08,0,0,0,.42-1.75c0-.57-.3-.87-.76-.87s-.87.49-.87,1.22S16.1,41.17,16.9,41.51Z"/><path class="cls-9" d="M26.23,47.91c0-4.26,2.89-7.92,5.32-7.92,1.75,0,2.4.84,2.4,2.32,0,3.16-3.35,6.36-4.79,7.35.22,1.29,1.21,2.09,3,2.09,2.25,0,3.73-1.83,4.45-2.81.27-.39.46-.65.76-.65a.89.89,0,0,1,.77.76,1.43,1.43,0,0,1-.39.87,7.28,7.28,0,0,1-6,3.51A5.21,5.21,0,0,1,26.23,47.91Zm5.67-5.52c0-.46-.19-.65-.54-.65-.87,0-2.58,3.12-2.58,5.86C29.92,46.88,31.9,44.71,31.9,42.39Z"/><path class="cls-9" d="M50.81,48.94c.27-.39.46-.65.76-.65a.89.89,0,0,1,.76.76,1.41,1.41,0,0,1-.38.87c-1,1.34-2.36,3.39-4.41,3.39-3.28,0-3.39-4.49-3.39-4.49s-2.78,4.49-5.37,4.49c-1.9,0-2.77-2-2.77-3.73,0-5.86,3.76-9.66,6.12-9.66A2.74,2.74,0,0,1,45,42.05c0-.08.87-1.56,1.86-1.56.65,0,.95.49.95,1.1,0,.88-1.44,1.6-1.44,4.87,0,2.63.19,5,1.48,5S50.09,49.92,50.81,48.94Zm-12.48.34c0,1.22.23,2.17,1.18,2.17,1.14,0,4.22-4.57,4.22-5s-.53-.57-.53-1.14.46-.91.46-1.48c0-1.33-.27-2.17-1.26-2.17C41.07,41.63,38.33,44.67,38.33,49.28Z"/><path class="cls-9" d="M50.92,47.3a68.29,68.29,0,0,1,.58-7.65H50.12c-.57,0-.68-.23-.68-.57s.46-1.3,1-1.3c.31,0,.8,0,1.33,0,.19-1.33.38-2.55.61-3.46.23-1.07.46-1.45.88-1.45.72,0,2,.8,2,1.68,0,.3-.5,1-.8,2L54,37.86h1.34a5.62,5.62,0,0,0,2.32-.38c.42,0,1.06.76,1.06,1.26s-1.52.87-3.38.87H53.74a51.42,51.42,0,0,0-.46,7.46c0,4.11.95,4.68,2.25,4.68s2.55-1.83,3.27-2.81c.27-.39.46-.65.76-.65a.88.88,0,0,1,.76.76,1.41,1.41,0,0,1-.38.87c-.95,1.34-2.55,3.54-5,3.54C52.64,53.46,50.92,52.06,50.92,47.3Z"/><path class="cls-9" d="M57.32,47.91c0-4.26,2.89-7.92,5.33-7.92,1.75,0,2.39.84,2.39,2.32,0,3.16-3.35,6.36-4.79,7.35.23,1.29,1.22,2.09,3,2.09,2.25,0,3.73-1.83,4.46-2.81.26-.39.45-.65.76-.65a.89.89,0,0,1,.76.76,1.47,1.47,0,0,1-.38.87,7.3,7.3,0,0,1-6,3.51A5.21,5.21,0,0,1,57.32,47.91ZM63,42.39c0-.46-.19-.65-.53-.65-.88,0-2.59,3.12-2.59,5.86C61,46.88,63,44.71,63,42.39Z"/><path class="cls-9" d="M82.47,32.61c0,2.55-1.63,7.91-4,12.63.42,3.09,1.3,5.6,3,5.6,1.41,0,2.06-.92,2.78-1.9.27-.39.46-.65.76-.65a.89.89,0,0,1,.76.76,1.41,1.41,0,0,1-.38.87c-1,1.34-1.9,2.63-4.19,2.63s-3.92-2-4.6-4c-1.9,3-4,5.18-6.09,5.18s-3.46-1.41-3.46-4.07c0-5.25,3.19-9.36,6.54-9.36a3.91,3.91,0,0,1,2.48.83S76,39.46,76,37.44c0-4.26,1.22-8.14,4.11-8.14C81.56,29.3,82.47,30.71,82.47,32.61ZM76.23,45.89c-.19-1.1-.87-1.29-.87-2a2.66,2.66,0,0,1,.26-1.22S75.47,42,74.33,42c-2.89,0-4.83,3.73-4.83,7.69,0,1.63.76,2.28,1.52,2.28C72.54,51.94,74.48,49.28,76.23,45.89Zm1.94-4.34c1.45-3.54,2.44-7,2.44-8.64,0-1.06-.27-1.44-.8-1.44-.88,0-1.71,2.32-1.71,5.86C78.1,38.55,78.1,40,78.17,41.55Z"/><path class="cls-9" d="M105.69,52.17a3.4,3.4,0,0,1-1.94-.57,5.29,5.29,0,0,1-4.11,2.13c-3.62,0-5.33-2.63-5.33-7.61,0-11.72,2.89-16.94,5.74-16.94,1.26,0,2.33.92,2.33,2.9,0,6.69-5.48,15.83-5.48,15.83s.11,3.92,3.31,3.92a3,3,0,0,0,2.39-1.26,9.92,9.92,0,0,1-1.86-5.9c0-2.13,1.18-4.26,2.7-4.26,1.68,0,2.78,1.52,2.78,3.88a13.39,13.39,0,0,1-1.56,6,2.48,2.48,0,0,0,1.1.26c.95,0,1.41-.61,2.13-1.59.27-.39.46-.65.77-.65a.89.89,0,0,1,.76.76,1.47,1.47,0,0,1-.38.87C108.5,50.69,107.36,52.17,105.69,52.17Zm-9.17-7.08s4-7.91,4-13.13c0-.42-.19-.76-.61-.76C98.61,31.2,96.52,35.88,96.52,45.09Zm7,3.92a13.39,13.39,0,0,0,.91-4.64c0-1.52-.34-2-.8-2-.61,0-1,1-1,2.28A10.22,10.22,0,0,0,103.48,49Z"/><path class="cls-9" d="M117.1,54.91a43.7,43.7,0,0,0,.38-5.59s-2.85,3.92-5.67,3.92c-2.62,0-3.19-2.17-3.19-4.61A30.56,30.56,0,0,1,110,41.1c.26-.84.53-1.07,1.06-1.07a1.65,1.65,0,0,1,1.53,1.79c0,1.1-1.53,3.54-1.53,6.7,0,1.56.46,2.47,1.45,2.47s3.35-1.83,4.53-4.22a14.61,14.61,0,0,0,1.29-5c0-.91.42-1.44,1-1.44a1.82,1.82,0,0,1,1.64,2c0,1.18-.76,3.19-.76,5.32a41.81,41.81,0,0,1-.34,5.44,24,24,0,0,0,4.15-4.1c.26-.39.45-.65.76-.65a.89.89,0,0,1,.76.76,1.47,1.47,0,0,1-.38.87,26.24,26.24,0,0,1-5.6,5.29c-1.14,6.7-3.76,11.76-7,11.76a3.74,3.74,0,0,1-3.88-3.38C108.58,60.54,112.8,57.84,117.1,54.91Zm-.34,2.28c-3.35,2.44-6.16,4.61-6.16,6.4,0,1.18.68,1.52,1.71,1.52C114.33,65.11,115.92,61.72,116.76,57.19Z"/><path class="cls-9" d="M43,71.88h1.12v.57c0,3.15,1.95,4.19,3.74,4.19s3.75-1,3.75-4.19V60.83a.51.51,0,0,0-.57-.57H46.5v-1h4.73c1.06,0,1.51.44,1.51,1.51V72.45c0,3.9-2.5,5.28-4.87,5.28S43,76.35,43,72.45Z"/><path class="cls-9" d="M59.29,66a.51.51,0,0,0-.57-.57H57.6v-1h1.27c1.07,0,1.51.44,1.51,1.43v6.42c0,2.26.29,4.39,3.2,4.39,3.25,0,5.33-2.86,5.33-5.9V64.42H70V75.86a.51.51,0,0,0,.57.57h1.12v1H70.42c-1.07,0-1.51-.44-1.51-1.43v-.73c0-.6,0-1.07,0-1.07h0a5.73,5.73,0,0,1-5.33,3.54c-3.2,0-4.29-1.77-4.29-5.07Z"/><path class="cls-9" d="M76.58,60.78a.5.5,0,0,0-.57-.57H74.89v-1h1.28c1.06,0,1.51.44,1.51,1.51V75.86a.5.5,0,0,0,.57.57h1.12v1H78.09c-1.06,0-1.51-.44-1.51-1.51Z"/><path class="cls-9" d="M84.51,66a.5.5,0,0,0-.57-.57H82.83v-1H84.1c1.07,0,1.51.44,1.51,1.51v9.93a.51.51,0,0,0,.57.57H87.3v1H86c-1.06,0-1.51-.44-1.51-1.51Zm-.15-6.76h1.19v1.9H84.36Z"/><path class="cls-9" d="M97.44,64.11c3.53,0,5.3,2.78,5.3,5.92,0,.29,0,.71,0,.71H92.26c0,3.77,2.55,5.92,5.57,5.92a5.89,5.89,0,0,0,4-1.63l.6.91a7.09,7.09,0,0,1-4.63,1.79,6.53,6.53,0,0,1-6.71-6.79C91.12,66.55,94.11,64.11,97.44,64.11Zm4.16,5.61c-.13-3.17-2-4.6-4.19-4.6a5.06,5.06,0,0,0-5.07,4.6Z"/></svg>